<mxfile host="app.diagrams.net" modified="2020-04-02T07:14:42.187Z" agent="5.0 (Macintosh; Intel Mac OS X 10_14_6) AppleWebKit/537.36 (KHTML, like Gecko) Chrome/80.0.3987.149 Safari/537.36" etag="BNMta8yb4J6NK7_0PDep" version="12.9.5" type="github">
  <diagram id="EoaxqzFBpPvXNTXydumK" name="Page-1">
    <mxGraphModel dx="1426" dy="771" grid="1" gridSize="10" guides="1" tooltips="1" connect="1" arrows="1" fold="1" page="1" pageScale="1" pageWidth="827" pageHeight="1169" math="0" shadow="0">
      <root>
        <mxCell id="0" />
        <mxCell id="1" parent="0" />
        <mxCell id="C37s2EUpfDOjxkKUlnj4-1" value="" style="ellipse;whiteSpace=wrap;html=1;fillColor=none;" vertex="1" parent="1">
          <mxGeometry x="50" y="60" width="700" height="570" as="geometry" />
        </mxCell>
        <mxCell id="C37s2EUpfDOjxkKUlnj4-2" value="企业办公" style="text;html=1;strokeColor=none;fillColor=none;align=center;verticalAlign=middle;whiteSpace=wrap;rounded=0;" vertex="1" parent="1">
          <mxGeometry x="330" y="100" width="110" height="40" as="geometry" />
        </mxCell>
        <mxCell id="C37s2EUpfDOjxkKUlnj4-3" value="组织管理" style="ellipse;whiteSpace=wrap;html=1;fillColor=none;" vertex="1" parent="1">
          <mxGeometry x="140" y="210" width="170" height="120" as="geometry" />
        </mxCell>
        <mxCell id="C37s2EUpfDOjxkKUlnj4-4" value="绩效管理" style="ellipse;whiteSpace=wrap;html=1;fillColor=none;" vertex="1" parent="1">
          <mxGeometry x="200" y="400" width="120" height="80" as="geometry" />
        </mxCell>
        <mxCell id="C37s2EUpfDOjxkKUlnj4-5" value="工单管理" style="ellipse;whiteSpace=wrap;html=1;fillColor=none;" vertex="1" parent="1">
          <mxGeometry x="380" y="305" width="120" height="80" as="geometry" />
        </mxCell>
        <mxCell id="C37s2EUpfDOjxkKUlnj4-6" value="薪资管理" style="ellipse;whiteSpace=wrap;html=1;fillColor=none;" vertex="1" parent="1">
          <mxGeometry x="470" y="160" width="120" height="80" as="geometry" />
        </mxCell>
        <mxCell id="C37s2EUpfDOjxkKUlnj4-7" value="出行住宿管理" style="ellipse;whiteSpace=wrap;html=1;fillColor=none;" vertex="1" parent="1">
          <mxGeometry x="430" y="460" width="120" height="80" as="geometry" />
        </mxCell>
      </root>
    </mxGraphModel>
  </diagram>
</mxfile>
